<svg xmlns="http://www.w3.org/2000/svg" viewBox="0 0 32 32"><g fill="currentcolor"><path d="M24 0v6l-3.929.001a6.958 6.958 0 0 0 1.488 3.403l.193.228-1.5 1.324a8.963 8.963 0 0 1-2.18-4.81 3 3 0 0 0-2.066 2.665L16 8.97v3.606l4.484 4.356a5 5 0 0 1 1.49 3.083l.02.25.006.253v8.631a3 3 0 0 1-2.824 2.995L19 32.15l-12.032-.129a3 3 0 0 1-2.963-2.825L4 29.021v-8.364a5 5 0 0 1 1.282-3.344l.182-.192L10 12.584V9.415L5.99 5.404l.016-.653A5 5 0 0 1 10.78.005L11 0zM7.659 21c-.563 0-1.12.066-1.659.197v7.824a1 1 0 0 0 .874.992l.115.008 12 .129.128-.007a1 1 0 0 0 .876-.876L20 29.15v-3.523a8.976 8.976 0 0 1-7.158-2.35l-.236-.227A6.967 6.967 0 0 0 7.659 21zM14 10h-2v3.414l-5.121 5.122a3 3 0 0 0-.432.545A9.046 9.046 0 0 1 7.66 19c2.262 0 4.444.844 6.124 2.407l.237.229A6.979 6.979 0 0 0 20 23.61v-3.092a3 3 0 0 0-.77-2.006l-.14-.145L14 13.423zm4-8h-7c-1.42 0-2.618.99-2.923 2.308l-.035.174-.018.127 3.389 3.39H14.1l.012-.058A5.006 5.006 0 0 1 18 4.1zm12 2a1 1 0 1 1 0 2 1 1 0 0 1 0-2zm-3-2a1 1 0 1 1 0 2 1 1 0 0 1 0-2zm-5 0h-2v2h2zm8-2a1 1 0 1 1 0 2 1 1 0 0 1 0-2z"/></g></svg>