<?xml version="1.0" encoding="iso-8859-1"?>
<!-- Generator: Adobe Illustrator 19.0.0, SVG Export Plug-In . SVG Version: 6.00 Build 0)  -->
<svg version="1.1" id="Capa_1" xmlns="http://www.w3.org/2000/svg" xmlns:xlink="http://www.w3.org/1999/xlink" x="0px" y="0px"
	 viewBox="0 0 512 512" style="enable-background:new 0 0 512 512;" xml:space="preserve">
<g>
	<g>
		<g>
			<path d="M393.765,249.851c6.524,20.024,19,34.336,35.129,40.301c5.231,1.935,10.667,2.894,16.139,2.894
				c8.043,0,16.159-2.075,23.797-6.179c18.698-10.049,32.947-30.842,39.095-57.048c4.606-19.636,4-40.097-1.708-57.615
				c-6.524-20.023-19-34.335-35.129-40.301c-12.92-4.777-27.103-3.611-39.936,3.286c-18.699,10.047-32.948,30.84-39.095,57.047
				C387.451,211.871,388.057,232.332,393.765,249.851z M430.998,201.37c4.099-17.477,12.844-27.596,19.087-30.95
				c2.075-1.115,3.683-1.429,4.869-1.429c1.107,0,1.849,0.274,2.26,0.426c8.929,3.302,17.951,24.914,11.769,51.265
				c-4.1,17.476-12.844,27.595-19.087,30.95c-4.012,2.156-6.275,1.319-7.13,1.002C433.839,249.334,424.815,227.722,430.998,201.37z"
				/>
			<path d="M315.879,168.813c4.787,1.447,9.698,2.163,14.631,2.163c9.562,0,19.191-2.693,28.082-7.968
				c19.156-11.364,33.351-33.206,38.944-59.927c9.581-45.764-9.492-89.644-43.423-99.901c-14.065-4.251-29.235-2.191-42.713,5.805
				c-19.156,11.364-33.351,33.206-38.944,59.927C262.875,114.674,281.948,158.556,315.879,168.813z M311.605,77.107
				c3.832-18.3,12.948-29.419,20.204-33.723c3.206-1.902,5.786-2.396,7.656-2.396c1.491,0,2.53,0.314,3.075,0.479
				c12,3.627,21.327,27.243,15.848,53.418c-3.832,18.3-12.948,29.419-20.204,33.723c-5.763,3.419-9.503,2.29-10.73,1.917
				C315.452,126.898,306.125,103.283,311.605,77.107z"/>
			<path d="M506.13,477.833l-92.392-92.392c-9.803-42.838-29.62-91.118-52.385-127.322C329.21,207.008,292.435,179.991,255,179.991
				c-12.575,0-25.121,3.118-37.454,9.259l-21.191-21.192c32.522-11.475,50.557-54.402,41.189-99.147
				C231.95,42.19,217.756,20.348,198.6,8.984c-13.477-7.996-28.646-10.057-42.713-5.805c-28.586,8.641-46.624,41.151-45.868,78.544
				L34.154,5.858c-7.811-7.811-20.474-7.811-28.284,0c-7.81,7.811-7.811,20.473,0,28.283l471.976,471.976
				c3.905,3.905,9.023,5.857,14.142,5.857s10.237-1.952,14.142-5.857C513.94,498.307,513.94,485.644,506.13,477.833z
				 M182.547,130.525c-1.228,0.372-4.969,1.501-10.73-1.917c-7.256-4.304-16.372-15.423-20.204-33.723
				c-5.479-26.176,3.848-49.79,15.848-53.418c0.545-0.165,1.584-0.479,3.075-0.479c1.87,0,4.45,0.494,7.656,2.396
				c7.256,4.304,16.372,15.423,20.204,33.723C203.873,103.282,194.547,126.897,182.547,130.525z M248.823,220.527
				c2.086-0.351,4.147-0.538,6.177-0.538c22.65,0,48.395,21.103,72.492,59.424c7.997,12.716,15.591,27.092,22.406,42.189
				L248.823,220.527z"/>
			<path d="M117.236,263.776c5.708-17.518,6.314-37.978,1.708-57.614c-6.147-26.208-20.396-47.001-39.095-57.049
				c-12.833-6.897-27.019-8.062-39.936-3.285c-16.129,5.964-28.605,20.276-35.129,40.3c-5.708,17.518-6.314,37.979-1.708,57.614
				c6.147,26.207,20.396,47.001,39.095,57.049c7.639,4.104,15.753,6.18,23.797,6.179c5.471,0,10.908-0.96,16.139-2.894
				C98.236,298.112,110.711,283.799,117.236,263.776z M68.234,266.561c-0.854,0.314-3.119,1.154-7.13-1.003
				c-6.243-3.354-14.987-13.473-19.087-30.95c-6.183-26.352,2.841-47.964,11.768-51.265c0.412-0.152,1.153-0.426,2.262-0.426
				c1.187,0,2.794,0.314,4.868,1.429c6.243,3.355,14.987,13.473,19.087,30.949v0.001C86.184,241.648,77.162,263.26,68.234,266.561z"
				/>
			<path d="M373.934,471.939c-6.385,0.666-21.371-5.701-34.585-11.315c-23.249-9.879-52.184-22.174-84.347-22.174
				c-32.162,0-61.098,12.295-84.347,22.175c-9.29,3.947-18.064,7.675-25.099,9.732c-6.174,1.805-8.834,1.684-9.628,1.57
				c-0.996-1.254-5.921-9.001-5.921-39.468c0-30.671,20.039-97.154,49.869-147.239c5.652-9.49,2.541-21.765-6.949-27.416
				c-9.488-5.653-21.764-2.541-27.416,6.948c-34.742,58.331-55.503,131.076-55.503,167.706c0,40.038,7.15,61.852,23.908,72.938
				c7.125,4.714,14.707,6.604,22.653,6.604c15.452,0,32.27-7.146,49.726-14.564c20.946-8.9,44.687-18.988,68.705-18.988
				c24.018,0,47.759,10.089,68.704,18.988c20.224,8.594,37.695,16.011,54.352,14.288c10.985-1.139,18.969-10.968,17.83-21.955
				C394.748,478.784,384.93,470.808,373.934,471.939z"/>
		</g>
	</g>
</g>
</svg>
