<svg xmlns="http://www.w3.org/2000/svg" viewBox="0 0 1024 1024"><g fill="currentcolor"><path d="M751.236 461.329q-28.234 28.234-75.628 20.167t-86.72-47.393-47.393-86.72 20.167-75.628l-0.504-0.504-325.704 325.704q-18.655 18.655-38.57 49.158t-29.999 54.704l-79.661 199.657q-3.529 9.075-4.286 16.638t1.26 12.605 6.806 7.815 11.344 2.773q9.075 0 20.167-4.538l199.657-79.661q16.134-6.554 35.797-17.899t37.814-24.957 30.251-25.713l325.704-325.704-0.504-0.504zM149.239 873.753l62.015-155.289q8.067-19.663 25.461-46.133t32.52-41.595l31.259-31.259q10.588 43.36 45.125 77.897t77.897 45.125l-31.259 31.259q-15.126 15.126-41.595 32.52t-46.133 25.461l-155.289 62.015zM908.037 114.954q-23.697-23.697-51.679-36.301t-54.2-12.605q-34.789 0-56.469 21.68l-0.504-0.504-115.963 115.963v0.504q-27.73 28.234-19.663 75.628t47.393 86.72 86.72 47.393 75.628-20.167l0.504 0.504 115.963-115.963-0.504-0.504q9.075-9.075 14.621-21.428t6.806-25.713-1.26-28.234-8.571-29.747-16.134-29.495-22.688-27.73zM802.159 97.812q13.613 0 28.234 4.79t28.739 13.613 26.218 21.428q32.268 31.764 38.822 69.578 0.504 5.042 0.756 10.336t-0.504 12.1-3.529 13.361-7.815 11.596q-12.1 12.1-34.285 12.1-20.167 0-42.352-10.336t-40.839-28.991q-19.159-19.159-29.747-42.099t-10.084-43.108 12.605-32.268 33.78-12.1z"/></g></svg>