<svg xmlns="http://www.w3.org/2000/svg" viewBox="0 0 1024 1024"><g fill="currentcolor"><path d="M127.055 514.773q0 77.645 30.251 148.23t81.174 121.509 121.509 81.174 148.23 30.251 148.23-30.251 121.509-81.174 81.174-121.509 30.251-148.23-30.251-148.23-81.174-121.509-121.509-81.174-148.23-30.251-148.23 30.251-121.509 81.174-81.174 121.509-30.251 148.23zM184.028 514.773q0-52.939 16.386-102.35t46.385-89.241 69.83-69.83 89.241-46.385 102.35-16.386q66.048 0 125.794 25.713t103.358 69.325 69.325 103.358 25.713 125.794q0 112.433-70.082 200.666-65.544 82.686-165.877 110.921-43.36 12.1-88.232 12.605-66.048 0-125.794-25.713t-103.358-69.325-69.325-103.358-25.713-125.794zM655.945 600.484l-86.72-73.611q2.521-12.1 2.521-12.1 0-13.109-6.050-26.218l64.032-94.787q12.1-17.646 15.126-39.326l3.529-25.713q1.008-8.571-3.529-11.848t-12.605 0.756l-23.697 12.605q-7.563 4.538-16.89 12.857t-14.369 15.378l-63.023 93.778q-1.008 0-3.025-0.504l-3.025-0.504q-26.218 0-44.872 18.655t-18.655 44.872 18.655 44.872 44.872 18.655q7.563 0 19.159-4.033l87.728 74.619q16.638 13.613 37.814 19.159l24.705 6.050q9.075 2.521 12.857-2.017t0.252-12.605l-10.084-24.705q-1.513-4.033-4.286-9.075t-6.302-9.58-7.059-8.571-7.059-7.059z"/></g></svg>