<?xml version="1.0" standalone="no"?>
<!DOCTYPE svg PUBLIC "-//W3C//DTD SVG 20010904//EN"
 "http://www.w3.org/TR/2001/REC-SVG-20010904/DTD/svg10.dtd">
<svg version="1.0" xmlns="http://www.w3.org/2000/svg"
 width="414.000000pt" height="104.000000pt" viewBox="0 0 414.000000 104.000000"
 preserveAspectRatio="xMidYMid meet">

<g transform="translate(0.000000,104.000000) scale(0.100000,-0.100000)"
fill="currentcolor" stroke="none">
<path d="M2613 818 c-42 -7 -53 -14 -53 -28 0 -12 8 -20 23 -22 22 -3 22 -4
25 -205 2 -194 2 -203 -18 -215 -11 -7 -20 -21 -20 -30 0 -16 10 -18 79 -18
70 0 79 2 84 19 3 15 -1 21 -17 23 -21 3 -21 6 -21 198 0 107 4 216 8 243 8
54 9 53 -90 35z"/>
<path d="M315 705 c-32 -52 -60 -95 -64 -95 -3 0 -30 41 -60 91 -29 49 -56 88
-58 85 -2 -2 1 -66 6 -142 6 -77 11 -151 11 -166 l0 -28 353 0 354 0 7 166 c4
92 5 168 3 170 -2 3 -28 -34 -56 -81 -29 -46 -56 -87 -60 -89 -4 -3 -33 38
-65 90 -32 52 -61 92 -66 89 -4 -3 -32 -45 -61 -95 -29 -49 -56 -90 -59 -90
-3 0 -31 43 -63 95 -32 52 -60 95 -62 95 -1 0 -29 -43 -60 -95z"/>
<path d="M2905 756 c-60 -22 -105 -76 -105 -125 0 -54 31 -88 129 -140 80 -43
98 -64 86 -99 -6 -22 -45 -42 -81 -42 -32 0 -74 42 -74 75 0 20 -5 25 -24 25
-15 0 -27 -7 -30 -17 -10 -35 -10 -103 0 -113 5 -5 35 -15 65 -21 124 -25 236
30 246 122 4 39 1 50 -22 77 -15 18 -55 47 -89 64 -75 37 -106 65 -106 94 0
30 26 49 70 49 47 0 70 -19 70 -56 0 -25 4 -29 29 -29 27 0 29 2 35 61 4 35 3
66 -2 71 -17 17 -154 20 -197 4z"/>
<path d="M1040 743 c0 -10 10 -23 23 -28 21 -10 22 -15 25 -160 3 -173 0 -192
-33 -207 -14 -6 -25 -19 -25 -30 0 -16 9 -18 94 -18 78 0 95 3 100 17 7 16 -8
33 -30 33 -20 0 -32 78 -18 114 3 9 17 16 30 16 20 0 31 -14 64 -80 22 -44 51
-87 65 -96 40 -26 124 -9 125 26 0 3 -13 11 -29 17 -20 7 -45 34 -75 82 l-46
71 41 37 c66 63 69 150 6 197 -25 19 -45 21 -173 24 -134 3 -144 2 -144 -15z
m219 -44 c89 -31 58 -159 -39 -159 l-40 0 0 78 c0 43 3 82 7 85 9 10 36 8 72
-4z"/>
<path d="M3238 652 c-55 -35 -77 -72 -43 -72 26 0 35 -37 35 -143 0 -114 7
-128 63 -142 21 -6 37 -1 67 19 50 33 53 57 8 50 -18 -3 -39 -1 -46 4 -18 12
-25 71 -17 146 l6 65 42 3 c30 2 43 8 45 20 3 13 -6 17 -40 20 -42 3 -43 4
-40 36 4 41 -7 40 -80 -6z"/>
<path d="M1605 633 c-35 -9 -87 -54 -101 -89 -18 -44 -18 -138 1 -174 48 -93
188 -103 259 -19 47 55 53 169 12 231 -30 47 -101 68 -171 51z m77 -70 c21
-25 29 -54 30 -112 0 -65 -7 -86 -37 -99 -57 -26 -97 24 -99 122 -1 67 22 106
63 106 15 0 35 -8 43 -17z"/>
<path d="M2283 615 c-53 -25 -58 -31 -47 -59 5 -13 9 -13 27 -1 57 36 127 14
127 -40 0 -25 -14 -31 -110 -50 -48 -10 -70 -32 -70 -71 0 -79 87 -121 147
-70 l27 24 27 -29 c34 -37 49 -36 88 3 36 37 40 53 10 45 -47 -12 -50 -2 -43
112 6 105 6 106 -19 130 -38 34 -99 37 -164 6z m107 -198 c0 -27 -6 -36 -26
-46 -32 -14 -61 -6 -69 19 -9 27 0 38 38 49 53 15 57 13 57 -22z"/>
<path d="M3530 615 c-66 -32 -63 -29 -55 -54 6 -20 8 -20 38 -4 62 32 117 11
117 -44 0 -18 -8 -24 -40 -33 -22 -5 -58 -15 -80 -20 -47 -13 -64 -39 -56 -86
13 -68 90 -95 143 -50 l27 24 27 -29 c34 -37 54 -37 90 2 35 37 37 53 7 46
-41 -11 -47 6 -41 116 5 99 5 103 -20 125 -38 36 -91 38 -157 7z m100 -200 c0
-29 -5 -37 -26 -46 -33 -12 -61 -4 -69 21 -9 27 0 38 38 49 53 15 57 14 57
-24z"/>
<path d="M1840 612 c0 -9 8 -22 19 -29 10 -6 25 -31 34 -55 8 -24 31 -87 51
-141 l35 -98 -35 -39 c-21 -23 -52 -45 -75 -52 -21 -6 -39 -14 -39 -18 0 -15
48 -50 67 -50 56 0 104 75 198 305 32 77 63 144 70 150 7 5 15 18 18 28 6 16
0 18 -66 15 -59 -2 -72 -6 -75 -20 -3 -13 3 -18 22 -18 14 0 26 -5 26 -10 0
-14 -61 -173 -70 -183 -6 -7 -22 41 -57 166 -3 13 2 20 16 24 12 3 21 13 21
24 0 17 -8 19 -80 19 -70 0 -80 -2 -80 -18z"/>
<path d="M3780 611 c0 -11 9 -22 19 -26 14 -4 32 -41 64 -128 25 -67 48 -132
52 -145 10 -33 -34 -86 -90 -107 -49 -19 -55 -33 -27 -58 27 -25 57 -21 95 13
41 36 78 105 147 275 29 72 61 137 71 147 11 9 19 23 19 32 0 13 -13 16 -70
16 -63 0 -70 -2 -70 -20 0 -13 7 -20 20 -20 12 0 20 -7 20 -17 0 -29 -63 -185
-71 -176 -9 10 -49 153 -49 176 0 9 6 17 14 17 12 0 26 20 26 36 0 2 -38 4
-85 4 -77 0 -85 -2 -85 -19z"/>
<path d="M116 414 c-19 -18 -21 -45 -4 -62 17 -17 759 -17 776 0 17 17 15 44
-4 62 -13 14 -62 16 -384 16 -322 0 -371 -2 -384 -16z"/>
</g>
</svg>
