<?xml version="1.0" standalone="no"?>
<!DOCTYPE svg PUBLIC "-//W3C//DTD SVG 20010904//EN"
 "http://www.w3.org/TR/2001/REC-SVG-20010904/DTD/svg10.dtd">
<svg version="1.0" xmlns="http://www.w3.org/2000/svg"
 width="100.000000pt" height="104.000000pt" viewBox="0 0 100.000000 104.000000"
 preserveAspectRatio="xMidYMid meet">

<g transform="translate(0.000000,104.000000) scale(0.100000,-0.100000)"
fill="currentcolor" stroke="none">
<path d="M316 705 c-31 -52 -60 -95 -64 -95 -4 0 -32 41 -62 90 -30 49 -55 88
-57 86 -1 -1 3 -77 9 -169 l12 -167 348 0 348 0 4 23 c3 12 8 90 11 172 l6
150 -55 -85 c-31 -47 -56 -88 -56 -92 0 -25 -25 3 -75 87 -32 52 -59 95 -61
95 -1 0 -29 -43 -61 -95 -32 -52 -60 -95 -63 -95 -3 0 -32 43 -64 95 -33 52
-60 95 -61 95 -2 0 -28 -43 -59 -95z"/>
<path d="M128 423 c-23 -6 -34 -49 -18 -68 19 -22 761 -22 780 0 17 21 4 61
-22 69 -26 7 -714 6 -740 -1z"/>
</g>
</svg>
